# xmcd
#
# Track frame offsets:
#	150
#	21103
#	37068
#	53420
#	67869
#	87145
#	103624
#	119440
#	141495
#
# Disc length: 2153 seconds
#
# Revision: 0
# Processed by: cddbd v1.5.2PL0 Copyright (c) Steve Scherf et al.
# Submitted via: MusicWizard 7.2.0
#
DISCID=73086709
DTITLE=Spooky Tooth - Witness
DYEAR=2000
DGENRE=Blues
TTITLE0=Ocean Of Power
TTITLE1=Wings Of My Heart
TTITLE2=As Long As The World Keeps Turning
TTITLE3=Don't Ever Stray Away
TTITLE4=Things Change
TTITLE5=All Sewn Up
TTITLE6=Dream Me A Mountain
TTITLE7=Sunlight Of My Mind
TTITLE8=Pyramids
EXTD=
EXTT0=
EXTT1=
EXTT2=
EXTT3=
EXTT4=
EXTT5=
EXTT6=
EXTT7=
EXTT8=
PLAYORDER=
